<svg width="35" height="35" viewBox="0 0 35 35" fill="none" xmlns="http://www.w3.org/2000/svg">
<path d="M35 17.5C35 27.165 27.165 35 17.5 35C7.83502 35 0 27.165 0 17.5C0 7.83502 7.83502 0 17.5 0C27.165 0 35 7.83502 35 17.5ZM0.35 17.5C0.35 26.9717 8.02832 34.65 17.5 34.65C26.9717 34.65 34.65 26.9717 34.65 17.5C34.65 8.02832 26.9717 0.35 17.5 0.35C8.02832 0.35 0.35 8.02832 0.35 17.5Z" fill="#747474"/>
<path d="M32.0833 17.5C32.0833 25.5542 25.5541 32.0834 17.5 32.0834C9.44581 32.0834 2.91663 25.5542 2.91663 17.5C2.91663 9.44587 9.44581 2.91669 17.5 2.91669C25.5541 2.91669 32.0833 9.44587 32.0833 17.5ZM3.20829 17.5C3.20829 25.3931 9.60689 31.7917 17.5 31.7917C25.393 31.7917 31.7916 25.3931 31.7916 17.5C31.7916 9.60695 25.393 3.20835 17.5 3.20835C9.60689 3.20835 3.20829 9.60695 3.20829 17.5Z" fill="#747474"/>
<path d="M29.1667 17.5C29.1667 23.9433 23.9434 29.1666 17.5 29.1666C11.0567 29.1666 5.83337 23.9433 5.83337 17.5C5.83337 11.0567 11.0567 5.83331 17.5 5.83331C23.9434 5.83331 29.1667 11.0567 29.1667 17.5ZM6.06671 17.5C6.06671 23.8144 11.1856 28.9333 17.5 28.9333C23.8145 28.9333 28.9334 23.8144 28.9334 17.5C28.9334 11.1855 23.8145 6.06665 17.5 6.06665C11.1856 6.06665 6.06671 11.1855 6.06671 17.5Z" fill="#747474"/>
<path d="M26.25 17.5C26.25 22.3325 22.3325 26.25 17.5 26.25C12.6675 26.25 8.75 22.3325 8.75 17.5C8.75 12.6675 12.6675 8.75 17.5 8.75C22.3325 8.75 26.25 12.6675 26.25 17.5ZM8.925 17.5C8.925 22.2358 12.7642 26.075 17.5 26.075C22.2358 26.075 26.075 22.2358 26.075 17.5C26.075 12.7642 22.2358 8.925 17.5 8.925C12.7642 8.925 8.925 12.7642 8.925 17.5Z" fill="#747474"/>
</svg>
