<svg width="106" height="51" viewBox="0 0 106 51" fill="none" xmlns="http://www.w3.org/2000/svg">
<path d="M21.5 28.95L30.2 3.95H26.3V3H33.95V3.95H31.6L19.55 38.5H15.35L2.6 3.95H0.3V3H16.65V3.95H13.1L21.5 28.95Z" fill="#393939"/>
<path d="M20.4785 15.1V14.2H34.9785V15.1H32.2785L37.7285 31.7L43.5285 15.1H40.1785V14.2H47.2285V15.1H44.7285L35.3785 42.05C34.2785 45.1833 33.0452 47.3667 31.6785 48.6C30.3118 49.8667 28.6452 50.5 26.6785 50.5C24.7118 50.5 23.1618 50.05 22.0285 49.15C20.8952 48.25 20.3285 47.1 20.3285 45.7C20.3285 44.3 20.6952 43.2333 21.4285 42.5C22.1618 41.7667 23.1285 41.4 24.3285 41.4C27.0952 41.4 28.4785 42.55 28.4785 44.85C28.4785 45.35 28.3785 45.95 28.1785 46.65H26.4285C26.1618 47.4167 26.1285 48.05 26.3285 48.55C26.5285 49.05 26.9785 49.3 27.6785 49.3C29.0452 49.3 30.2618 48.6167 31.3285 47.25C32.3952 45.9167 33.4118 43.8667 34.3785 41.1L35.4785 38H31.0785L22.5285 15.1H20.4785ZM46.4074 0.499997H58.6574V37.1H61.4574V38H46.6074V37.1H49.3574V1.4H46.4074V0.499997ZM62.2277 0.499997H74.4777V37.1H77.2777V38H62.4277V37.1H65.1777V1.4H62.2277V0.499997ZM90.248 26.25H91.698V22.4C91.698 19.2333 91.5147 17.1167 91.148 16.05C90.8147 14.95 90.148 14.4 89.148 14.4C88.548 14.4 87.998 14.5667 87.498 14.9C87.0314 15.2 86.798 15.6333 86.798 16.2C86.798 16.7333 86.898 17.2833 87.098 17.85H88.348C88.6147 18.55 88.748 19.4 88.748 20.4C88.748 21.3667 88.3314 22.2167 87.498 22.95C86.6647 23.65 85.6147 24 84.348 24C81.4814 24 80.048 22.6167 80.048 19.85C80.048 15.75 83.5314 13.7 90.498 13.7C94.4647 13.7 97.198 14.3833 98.698 15.75C100.231 17.0833 100.998 19.55 100.998 23.15V33.3C100.998 35.0333 101.481 35.9 102.448 35.9C103.581 35.9 104.248 34.1833 104.448 30.75L105.198 30.8C105.065 33.7333 104.515 35.75 103.548 36.85C102.581 37.95 100.998 38.5 98.798 38.5C94.798 38.5 92.498 37.2667 91.898 34.8C91.4647 36.0667 90.8147 37 89.948 37.6C89.0814 38.2 87.8147 38.5 86.148 38.5C81.2147 38.5 78.748 36.4833 78.748 32.45C78.748 30.0833 79.6814 28.4667 81.548 27.6C83.448 26.7 86.348 26.25 90.248 26.25ZM88.248 32.4C88.248 34.1333 88.3314 35.25 88.498 35.75C88.698 36.25 89.048 36.5 89.548 36.5C90.0814 36.5 90.5647 36.0833 90.998 35.25C91.4647 34.3833 91.698 33.2 91.698 31.7V27.05H91.348C89.2814 27.05 88.248 28.5667 88.248 31.6V32.4Z" fill="white"/>
</svg>
